<svg xmlns="http://www.w3.org/2000/svg" viewBox="0 0 750 500"><g id="freepik--background-simple--inject-2"><path d="M679,185S587,48,468,28,295,61,233,108,54,190,40,265s-2,133,62,169,110,21,236,8,142,39,252,25S713,336,708,278,679,185,679,185Z" style="fill:#92E3A9"></path><path d="M679,185S587,48,468,28,295,61,233,108,54,190,40,265s-2,133,62,169,110,21,236,8,142,39,252,25S713,336,708,278,679,185,679,185Z" style="fill:#fff;opacity:0.7000000000000001"></path></g><g id="freepik--Wall--inject-2"><rect x="369.44" y="275.23" width="36.79" height="14.89" style="opacity:0.2"></rect><rect x="355.43" y="222.24" width="36.79" height="14.89" style="opacity:0.2"></rect><rect x="222.28" y="274.8" width="36.79" height="14.89" style="opacity:0.2"></rect><rect x="275.72" y="171.18" width="36.79" height="14.89" style="opacity:0.2"></rect><rect x="316.01" y="171.18" width="36.79" height="14.89" style="opacity:0.2"></rect><rect x="159.21" y="384.92" width="36.79" height="14.89" style="opacity:0.2"></rect><rect x="139.94" y="403.31" width="36.79" height="14.89" style="opacity:0.2"></rect><rect x="335.28" y="242.82" width="36.79" height="14.89" style="opacity:0.1"></rect><rect x="390.47" y="326.48" width="36.79" height="14.89" style="opacity:0.1"></rect><rect x="174.98" y="349.25" width="36.79" height="14.89" style="opacity:0.1"></rect><rect x="217.03" y="349.25" width="36.79" height="14.89" style="opacity:0.1"></rect><rect x="220.53" y="328.23" width="36.79" height="14.89" style="opacity:0.1"></rect><rect x="377.33" y="242.82" width="36.79" height="14.89" style="opacity:0.1"></rect><rect x="267.83" y="401.81" width="36.79" height="14.89" style="opacity:0.2"></rect><rect x="247.68" y="422.4" width="36.79" height="14.89" style="opacity:0.1"></rect><rect x="289.73" y="422.4" width="36.79" height="14.89" style="opacity:0.1"></rect><rect x="89.48" y="216.47" width="36.79" height="14.89" style="opacity:0.2"></rect><rect x="69.33" y="237.05" width="36.79" height="14.89" style="opacity:0.1"></rect><rect x="111.38" y="237.05" width="36.79" height="14.89" style="opacity:0.1"></rect><rect x="75.12" y="327.36" width="36.79" height="14.89" style="opacity:0.2"></rect><rect x="238.05" y="256.15" width="36.79" height="14.89" style="opacity:0.1"></rect><rect x="182.86" y="402.44" width="36.79" height="14.89" style="opacity:0.1"></rect><rect x="296.74" y="152.78" width="36.79" height="14.89" style="opacity:0.1"></rect><rect x="54.1" y="278.05" width="36.79" height="14.89" style="opacity:0.2"></rect><rect x="75.12" y="259.65" width="36.79" height="14.89" style="opacity:0.1"></rect><rect x="168.85" y="170.12" width="36.79" height="14.89" style="opacity:0.1"></rect><rect x="296.74" y="275.23" width="36.79" height="14.89" style="opacity:0.2"></rect><rect x="84.22" y="74.56" width="36.79" height="14.89" style="opacity:0.2"></rect><rect x="12.39" y="163.91" width="36.79" height="14.89" style="opacity:0.1"></rect><rect x="54.44" y="163.91" width="36.79" height="14.89" style="opacity:0.1"></rect><rect x="57.94" y="142.89" width="36.79" height="14.89" style="opacity:0.1"></rect><rect x="30.44" y="202.71" width="36.79" height="14.89" style="opacity:0.1"></rect><rect x="134.15" y="89.89" width="36.79" height="14.89" style="opacity:0.2"></rect><rect x="318.31" y="222.24" width="36.79" height="14.89" transform="translate(673.4 459.37) rotate(180)" style="opacity:0.2"></rect><rect x="451.45" y="274.8" width="36.79" height="14.89" transform="translate(939.7 564.49) rotate(180)" style="opacity:0.2"></rect><rect x="398.02" y="171.18" width="36.79" height="14.89" transform="translate(832.83 357.25) rotate(180)" style="opacity:0.2"></rect><rect x="357.72" y="171.18" width="36.79" height="14.89" transform="translate(752.24 357.25) rotate(180)" style="opacity:0.2"></rect><rect x="514.52" y="384.92" width="36.79" height="14.89" transform="translate(1065.84 784.72) rotate(180)" style="opacity:0.2"></rect><rect x="533.79" y="403.31" width="36.79" height="14.89" transform="translate(1104.38 821.51) rotate(180)" style="opacity:0.2"></rect><rect x="338.45" y="242.82" width="36.79" height="14.89" transform="translate(713.7 500.54) rotate(180)" style="opacity:0.1"></rect><rect x="283.27" y="326.48" width="36.79" height="14.89" transform="translate(603.32 667.85) rotate(180)" style="opacity:0.1"></rect><rect x="498.75" y="349.25" width="36.79" height="14.89" transform="translate(1034.3 713.4) rotate(180)" style="opacity:0.1"></rect><rect x="456.71" y="349.25" width="36.79" height="14.89" transform="translate(950.21 713.4) rotate(180)" style="opacity:0.1"></rect><rect x="453.2" y="328.23" width="36.79" height="14.89" transform="translate(943.2 671.35) rotate(180)" style="opacity:0.1"></rect><rect x="296.41" y="242.82" width="36.79" height="14.89" transform="translate(629.6 500.54) rotate(180)" style="opacity:0.1"></rect><rect x="405.9" y="401.81" width="36.79" height="14.89" transform="translate(848.59 818.52) rotate(180)" style="opacity:0.2"></rect><rect x="426.05" y="422.4" width="36.79" height="14.89" transform="translate(888.89 859.69) rotate(180)" style="opacity:0.1"></rect><rect x="384" y="422.4" width="36.79" height="14.89" transform="translate(804.8 859.69) rotate(180)" style="opacity:0.1"></rect><rect x="584.26" y="216.47" width="36.79" height="14.89" transform="translate(1205.3 447.82) rotate(180)" style="opacity:0.2"></rect><rect x="604.4" y="237.05" width="36.79" height="14.89" transform="translate(1245.6 489) rotate(180)" style="opacity:0.1"></rect><rect x="562.36" y="237.05" width="36.79" height="14.89" transform="translate(1161.51 489) rotate(180)" style="opacity:0.1"></rect><rect x="598.62" y="327.36" width="36.79" height="14.89" transform="translate(1234.02 669.6) rotate(180)" style="opacity:0.2"></rect><rect x="435.69" y="256.15" width="36.79" height="14.89" transform="translate(908.16 527.19) rotate(180)" style="opacity:0.1"></rect><rect x="490.87" y="402.44" width="36.79" height="14.89" transform="translate(1018.53 819.76) rotate(180)" style="opacity:0.1"></rect><rect x="377" y="152.78" width="36.79" height="14.89" transform="translate(790.78 320.46) rotate(180)" style="opacity:0.1"></rect><rect x="619.64" y="278.05" width="36.79" height="14.89" transform="translate(1276.07 570.99) rotate(180)" style="opacity:0.2"></rect><rect x="598.62" y="259.65" width="36.79" height="14.89" transform="translate(1234.02 534.2) rotate(180)" style="opacity:0.1"></rect><rect x="504.89" y="170.12" width="36.79" height="14.89" transform="translate(1046.56 355.13) rotate(180)" style="opacity:0.1"></rect><rect x="589.51" y="74.56" width="36.79" height="14.89" transform="translate(1215.82 164.01) rotate(180)" style="opacity:0.2"></rect><rect x="661.34" y="163.91" width="36.79" height="14.89" transform="translate(1359.47 342.71) rotate(180)" style="opacity:0.1"></rect><rect x="619.3" y="163.91" width="36.79" height="14.89" transform="translate(1275.38 342.71) rotate(180)" style="opacity:0.1"></rect><rect x="615.79" y="142.89" width="36.79" height="14.89" transform="translate(1268.37 300.66) rotate(180)" style="opacity:0.1"></rect><rect x="643.29" y="202.71" width="36.79" height="14.89" transform="translate(1323.37 420.32) rotate(180)" style="opacity:0.1"></rect><rect x="539.58" y="89.89" width="36.79" height="14.89" transform="translate(1115.95 194.67) rotate(180)" style="opacity:0.2"></rect></g><g id="freepik--Plant--inject-2"><line x1="652.15" y1="364.24" x2="652.15" y2="253.9" style="fill:none;stroke:#5e5e5e;stroke-miterlimit:10;stroke-width:4px"></line><line x1="638.42" y1="366.47" x2="638.42" y2="214.08" style="fill:none;stroke:#5e5e5e;stroke-miterlimit:10;stroke-width:4px"></line><line x1="669.55" y1="367.21" x2="669.55" y2="313.69" style="fill:none;stroke:#5e5e5e;stroke-miterlimit:10;stroke-width:4px"></line><path d="M633.09,229.1s-2.76-5-11.94-16.06-47.29-40.87-47.29-40.87,21.58,11.48,28.46,17.45,16.07,13.31,16.07,13.31-25.71-28-28.46-29.84,26.17,22,26.17,22-11-22-16.53-29.38S583.5,141,583.5,141s29.84,40,31.22,42.24,7.35,12.4,7.35,12.4L611.51,168l12.85,22.5S606,152.43,605.08,150.59s12.85,17.91,12.85,17.91L606,132.69l27.54,56.47-1.83-22,5,23,1.38-56.47,3.21,56s5-35.81,6-43.16,1.38-15.15,1.38-15.15-.92,48.67-.92,50.05-.92,12.39-.92,12.39,6.89-20.66,8.72-26.17,3.68-24.33,4.59-27.09-4.59,42.24-5,44.08a52.06,52.06,0,0,1-3.21,8.72c-1.38,2.76,10.1-16.53,14.23-24.79l11.94-23.87s-6.89,23-8.72,27.08-13.78,26.17-13.78,26.17,17.91-21.12,25.71-26.63,22-16.06,22-16.06-23,24.79-27.55,29.38-17.9,20.66-17.9,20.66,23-14.69,24.33-16.07,17.91-11.94,17.91-11.94-33.33,26.33-34.9,28c-13.31,14.23-17.9,21.12-20.66,23.87S637.22,233.24,633.09,229.1Z" style="fill:#92E3A9"></path><path d="M648.93,269.35S647,265.78,640.49,258,607,229.08,607,229.08s15.26,8.12,20.13,12.34,11.37,9.42,11.37,9.42S620.35,231,618.4,229.73s18.51,15.59,18.51,15.59-7.79-15.59-11.69-20.78S613.86,207,613.86,207s21.11,28.25,22.08,29.88,5.2,8.77,5.2,8.77l-7.47-19.49,9.09,15.91s-13-26.95-13.64-28.25,9.09,12.66,9.09,12.66l-8.44-25.33,19.49,39.95L648,225.51l3.57,16.24,1-39.95,2.28,39.62s3.57-25.33,4.22-30.52,1-10.72,1-10.72-.65,34.42-.65,35.4-.65,8.77-.65,8.77,4.87-14.62,6.17-18.51,2.6-17.22,3.25-19.17-3.25,29.88-3.57,31.18a38,38,0,0,1-2.27,6.17c-1,1.95,7.14-11.69,10.06-17.54s8.45-16.88,8.45-16.88-4.87,16.24-6.17,19.16-9.75,18.51-9.75,18.51,12.67-14.94,18.19-18.84,15.59-11.36,15.59-11.36-16.24,17.53-19.49,20.78-12.66,14.62-12.66,14.62,16.24-10.4,17.21-11.37,12.66-8.44,12.66-8.44-23.57,18.62-24.68,19.81c-9.41,10.06-12.66,14.93-14.61,16.88S651.85,272.28,648.93,269.35Z" style="fill:#92E3A9"></path><path d="M665.46,315.72s-2-3.57-8.44-11.36-33.45-28.91-33.45-28.91,15.26,8.12,20.13,12.35,11.37,9.41,11.37,9.41-18.19-19.81-20.14-21.11,18.51,15.59,18.51,15.59-7.79-15.59-11.69-20.78-11.36-17.54-11.36-17.54,21.1,28.25,22.08,29.88,5.2,8.77,5.2,8.77l-7.47-19.49,9.09,15.91s-13-26.95-13.64-28.25,9.09,12.67,9.09,12.67l-8.44-25.33,19.48,39.94-1.29-15.59,3.57,16.24,1-39.94,2.27,39.62s3.58-25.34,4.23-30.53,1-10.72,1-10.72-.65,34.43-.65,35.4-.65,8.77-.65,8.77l6.17-18.51c1.3-3.9,2.6-17.22,3.25-19.16s-3.25,29.87-3.57,31.17a37.25,37.25,0,0,1-2.28,6.17c-1,1.95,7.15-11.69,10.07-17.53S697.29,256,697.29,256s-4.88,16.24-6.18,19.16-9.74,18.51-9.74,18.51S694,278.7,699.56,274.8s15.59-11.36,15.59-11.36S698.91,281,695.66,284.22,683,298.84,683,298.84s16.23-10.4,17.21-11.37S712.87,279,712.87,279s-23.57,18.62-24.68,19.81c-9.42,10.06-12.66,14.94-14.61,16.88S668.38,318.65,665.46,315.72Z" style="fill:#92E3A9"></path><path d="M686,402.92c0,21.68-5.7,40.82-14.41,52.38H633c-8.71-11.56-14.41-30.7-14.41-52.38,0-1.89,0-3.77.13-5.62a114.76,114.76,0,0,1,1.49-14c.29-1.7.61-3.37,1-5,.3-1.36.62-2.69,1-4a78.54,78.54,0,0,1,6.36-16.65h47.62a78.54,78.54,0,0,1,6.36,16.65c.35,1.31.67,2.64,1,4,.36,1.63.68,3.3,1,5a114.76,114.76,0,0,1,1.49,14C686,399.15,686,401,686,402.92Z" style="fill:#fff;stroke:#263238;stroke-miterlimit:10"></path><path d="M682.45,374.3H622.11c-.35,1.31-.67,2.64-1,4h62.28C683.12,376.94,682.8,375.61,682.45,374.3Zm1.94,9H620.17a114.76,114.76,0,0,0-1.49,14h67.2A114.76,114.76,0,0,0,684.39,383.3Z" style="fill:#263238;stroke:#263238;stroke-miterlimit:10"></path></g><g id="freepik--Screen--inject-2"><rect x="209.72" y="100.61" width="373.99" height="285.39" style="fill:#263238;stroke:#263238;stroke-miterlimit:10"></rect><rect x="205.32" y="94.74" width="373.99" height="285.39" style="fill:#fff;stroke:#263238;stroke-linecap:round;stroke-linejoin:round"></rect><rect x="205.32" y="94.74" width="373.99" height="54.07" style="fill:#92E3A9;stroke:#263238;stroke-linecap:round;stroke-linejoin:round"></rect><rect x="205.32" y="94.74" width="373.99" height="14.48" style="fill:#bfbfbf;stroke:#263238;stroke-linecap:round;stroke-linejoin:round"></rect><rect x="219.59" y="98.68" width="131.99" height="7" style="fill:#fff;stroke:#263238;stroke-linecap:round;stroke-linejoin:round"></rect><path d="M549.11,101.68a2.5,2.5,0,1,0-2.5,2.5A2.5,2.5,0,0,0,549.11,101.68Z" style="fill:#fff;stroke:#263238;stroke-linecap:round;stroke-linejoin:round"></path><path d="M560.11,101.68a2.5,2.5,0,1,0-2.5,2.5A2.5,2.5,0,0,0,560.11,101.68Z" style="fill:#fff;stroke:#263238;stroke-linecap:round;stroke-linejoin:round"></path><circle cx="568.61" cy="101.68" r="2.5" style="fill:#fff;stroke:#263238;stroke-linecap:round;stroke-linejoin:round"></circle><path d="M235.46,142.24v-16h4.7a4.61,4.61,0,0,1,2.34.53,3.22,3.22,0,0,1,1.33,1.55,6.46,6.46,0,0,1,.42,2.46,5.24,5.24,0,0,1-.53,2.52,3.18,3.18,0,0,1-1.49,1.39,5.46,5.46,0,0,1-2.26.44h-1.58v7.1Zm2.93-9.16h1.1a2.66,2.66,0,0,0,1.24-.23,1.21,1.21,0,0,0,.61-.73,4.39,4.39,0,0,0,.17-1.35,6.63,6.63,0,0,0-.13-1.41,1.22,1.22,0,0,0-.56-.8,2.64,2.64,0,0,0-1.33-.26h-1.1Z" style="fill:#263238"></path><path d="M245.79,142.24v-16h3.83a8.71,8.71,0,0,1,2.74.38,3.19,3.19,0,0,1,1.7,1.32,4.7,4.7,0,0,1,.58,2.52,7.63,7.63,0,0,1-.18,1.74,3.41,3.41,0,0,1-.6,1.32,2.72,2.72,0,0,1-1.17.84l2.23,7.87H252l-1.93-7.32h-1.34v7.32Zm2.93-9.16h.9a3.06,3.06,0,0,0,1.36-.25,1.44,1.44,0,0,0,.72-.79,3.87,3.87,0,0,0,.21-1.39,3,3,0,0,0-.44-1.8,2,2,0,0,0-1.69-.61h-1.06Z" style="fill:#263238"></path><path d="M256.91,142.24v-16h2.88v16Z" style="fill:#263238"></path><path d="M266.57,142.46a4.82,4.82,0,0,1-2.76-.69,3.62,3.62,0,0,1-1.39-1.88,8.93,8.93,0,0,1-.39-2.76v-5.71a9.24,9.24,0,0,1,.39-2.84,3.45,3.45,0,0,1,1.39-1.86,5.08,5.08,0,0,1,2.76-.65,5.15,5.15,0,0,1,2.6.56,3.2,3.2,0,0,1,1.33,1.61,7,7,0,0,1,.39,2.43V132h-2.8v-1.39a9.12,9.12,0,0,0-.07-1.22,1.52,1.52,0,0,0-.38-.88,1.38,1.38,0,0,0-1.05-.33,1.51,1.51,0,0,0-1.1.35,1.63,1.63,0,0,0-.44.93,7.43,7.43,0,0,0-.1,1.31v7a5.7,5.7,0,0,0,.14,1.43,1.47,1.47,0,0,0,.5.85,1.59,1.59,0,0,0,1,.29,1.32,1.32,0,0,0,1-.35,1.62,1.62,0,0,0,.39-.91,10,10,0,0,0,.08-1.29v-1.44h2.8v1.28a7.77,7.77,0,0,1-.37,2.52,3.25,3.25,0,0,1-1.32,1.72A4.76,4.76,0,0,1,266.57,142.46Z" style="fill:#263238"></path><path d="M273,142.24v-16h2.88v16Z" style="fill:#263238"></path><path d="M278.36,142.24v-16h2l3.89,9.12v-9.12h2.41v16h-1.93l-3.91-9.55v9.55Z" style="fill:#263238"></path><path d="M293.13,142.46a4.2,4.2,0,0,1-2.51-.67,3.68,3.68,0,0,1-1.33-1.9,9.44,9.44,0,0,1-.41-2.92V131.6a9.9,9.9,0,0,1,.4-3,3.47,3.47,0,0,1,1.39-1.91,5,5,0,0,1,2.76-.66,5.21,5.21,0,0,1,2.6.55,3.2,3.2,0,0,1,1.4,1.59,6.71,6.71,0,0,1,.42,2.52v.83h-2.78v-.91a7.16,7.16,0,0,0-.11-1.32,1.48,1.48,0,0,0-.44-.84,1.57,1.57,0,0,0-1-.29,1.46,1.46,0,0,0-1.12.38,1.8,1.8,0,0,0-.43,1,9.12,9.12,0,0,0-.09,1.34v6.69a6.2,6.2,0,0,0,.14,1.45,1.66,1.66,0,0,0,.51.93,1.56,1.56,0,0,0,1.07.33,1.5,1.5,0,0,0,1.08-.36,1.82,1.82,0,0,0,.52-1,6.55,6.55,0,0,0,.15-1.5V136h-1.72v-1.83h4.35v8.11h-1.88l-.21-1.58a3.06,3.06,0,0,1-1,1.3A2.8,2.8,0,0,1,293.13,142.46Z" style="fill:#263238"></path><path d="M305,142.24v-16h4.7a4.61,4.61,0,0,1,2.34.53,3.15,3.15,0,0,1,1.32,1.55,6.26,6.26,0,0,1,.43,2.46,5.24,5.24,0,0,1-.53,2.52,3.2,3.2,0,0,1-1.5,1.39,5.39,5.39,0,0,1-2.26.44h-1.58v7.1Zm2.92-9.16H309a2.59,2.59,0,0,0,1.23-.23,1.22,1.22,0,0,0,.62-.73,4.44,4.44,0,0,0,.16-1.35,6,6,0,0,0-.13-1.41,1.2,1.2,0,0,0-.55-.8,2.66,2.66,0,0,0-1.33-.26h-1.11Z" style="fill:#263238"></path><path d="M315.29,142.24v-16h2.92v14h3.87v2Z" style="fill:#263238"></path><path d="M322.79,142.24l3.2-16h3.12l3.2,16h-2.7l-.64-3.69h-2.78l-.65,3.69Zm3.7-5.54h2.17L327.57,130Z" style="fill:#263238"></path><path d="M333.83,142.24v-16h2l3.89,9.12v-9.12h2.41v16h-1.94l-3.91-9.55v9.55Z" style="fill:#263238"></path><path d="M348.62,142.46a4.73,4.73,0,0,1-2.4-.56,3.59,3.59,0,0,1-1.47-1.65,7.05,7.05,0,0,1-.55-2.67l2.51-.49a7,7,0,0,0,.23,1.64,2.35,2.35,0,0,0,.57,1.1,1.4,1.4,0,0,0,1,.38,1.13,1.13,0,0,0,1-.42,1.86,1.86,0,0,0,.3-1.08,2.89,2.89,0,0,0-.48-1.72,7,7,0,0,0-1.26-1.34l-2-1.78a6.12,6.12,0,0,1-1.36-1.63,4.55,4.55,0,0,1-.5-2.22,3.78,3.78,0,0,1,1.11-2.92,4.22,4.22,0,0,1,3-1,4.46,4.46,0,0,1,1.87.35,3.08,3.08,0,0,1,1.2,1,4.2,4.2,0,0,1,.66,1.4,7.9,7.9,0,0,1,.28,1.65l-2.49.43a8.28,8.28,0,0,0-.17-1.34,1.93,1.93,0,0,0-.45-.93,1.26,1.26,0,0,0-1-.34,1.19,1.19,0,0,0-1,.43,1.6,1.6,0,0,0-.34,1.05,2.49,2.49,0,0,0,.33,1.34,5.19,5.19,0,0,0,1,1.07l2,1.76a7.92,7.92,0,0,1,1.69,2,4.92,4.92,0,0,1,.7,2.69,4,4,0,0,1-.5,2,3.67,3.67,0,0,1-1.4,1.39A4.3,4.3,0,0,1,348.62,142.46Z" style="fill:#263238"></path><line x1="236.66" y1="115.77" x2="252.54" y2="115.77" style="fill:none;stroke:#263238;stroke-miterlimit:10"></line><line x1="271.7" y1="115.77" x2="287.58" y2="115.77" style="fill:none;stroke:#263238;stroke-miterlimit:10"></line><line x1="306.74" y1="115.77" x2="322.62" y2="115.77" style="fill:none;stroke:#263238;stroke-miterlimit:10"></line><line x1="341.78" y1="115.77" x2="357.66" y2="115.77" style="fill:none;stroke:#263238;stroke-miterlimit:10"></line><line x1="376.82" y1="115.77" x2="392.7" y2="115.77" style="fill:none;stroke:#263238;stroke-miterlimit:10"></line><line x1="536.13" y1="115.77" x2="544.54" y2="115.77" style="fill:none;stroke:#263238;stroke-miterlimit:10"></line><line x1="536.13" y1="119.51" x2="544.54" y2="119.51" style="fill:none;stroke:#263238;stroke-miterlimit:10"></line><line x1="536.13" y1="123.25" x2="544.54" y2="123.25" style="fill:none;stroke:#263238;stroke-miterlimit:10"></line></g><g id="freepik--business-option--inject-2"><rect x="451.27" y="169.87" width="98.12" height="181.74" style="fill:#92E3A9;stroke:#263238;stroke-linecap:round;stroke-linejoin:round"></rect><rect x="451.27" y="169.87" width="98.12" height="36" style="fill:#fff;stroke:#263238;stroke-linecap:round;stroke-linejoin:round"></rect><rect x="465.18" y="310.99" width="70.31" height="22" rx="9.5" style="fill:#263238;stroke:#263238;stroke-linecap:round;stroke-linejoin:round"></rect><path d="M478.09,187.32V177.6h2.39a5.26,5.26,0,0,1,1.17.12,2.47,2.47,0,0,1,.9.4,1.78,1.78,0,0,1,.58.76,3.07,3.07,0,0,1,.21,1.22,2.72,2.72,0,0,1-.17,1,1.43,1.43,0,0,1-.47.67,1.73,1.73,0,0,1-.78.33,2.09,2.09,0,0,1,1,.4,1.85,1.85,0,0,1,.56.8,3.45,3.45,0,0,1,.19,1.19,3.88,3.88,0,0,1-.18,1.23,2.5,2.5,0,0,1-.51.89,2.27,2.27,0,0,1-.86.53,3.59,3.59,0,0,1-1.19.18Zm1.78-5.75h.6a1.85,1.85,0,0,0,.82-.15.9.9,0,0,0,.4-.48,2.71,2.71,0,0,0,.11-.82,1.61,1.61,0,0,0-.17-.8.88.88,0,0,0-.52-.38,3.21,3.21,0,0,0-.89-.1h-.35Zm0,4.5h.67a1.27,1.27,0,0,0,1.09-.39,2,2,0,0,0,.29-1.2,2.6,2.6,0,0,0-.14-1,1,1,0,0,0-.45-.54,1.73,1.73,0,0,0-.85-.18h-.61Z" style="fill:#263238"></path><path d="M487.44,187.45a3.07,3.07,0,0,1-1.68-.39,2,2,0,0,1-.83-1.13,6,6,0,0,1-.22-1.75V177.6h1.72v6.78a5.81,5.81,0,0,0,.06.86,1.22,1.22,0,0,0,.29.65.85.85,0,0,0,.66.24.86.86,0,0,0,.68-.24,1.38,1.38,0,0,0,.28-.65,5.81,5.81,0,0,0,.06-.86V177.6h1.72v6.58a6,6,0,0,1-.23,1.75,2.07,2.07,0,0,1-.82,1.13A3.08,3.08,0,0,1,487.44,187.45Z" style="fill:#263238"></path><path d="M494,187.45a2.86,2.86,0,0,1-1.47-.34,2.1,2.1,0,0,1-.88-1,4,4,0,0,1-.34-1.62l1.52-.3a4.62,4.62,0,0,0,.14,1,1.47,1.47,0,0,0,.35.67.82.82,0,0,0,.62.23.69.69,0,0,0,.61-.25,1.14,1.14,0,0,0,.18-.66,1.77,1.77,0,0,0-.29-1,4.45,4.45,0,0,0-.77-.82l-1.22-1.08a3.5,3.5,0,0,1-.82-1,2.64,2.64,0,0,1-.31-1.35,2.27,2.27,0,0,1,.67-1.77,2.58,2.58,0,0,1,1.84-.63,2.76,2.76,0,0,1,1.14.21,1.82,1.82,0,0,1,.72.58,2.68,2.68,0,0,1,.41.85,5.35,5.35,0,0,1,.17,1l-1.52.27a4.71,4.71,0,0,0-.1-.82,1,1,0,0,0-.28-.56.75.75,0,0,0-.58-.21.74.74,0,0,0-.6.26,1,1,0,0,0-.21.64,1.43,1.43,0,0,0,.2.81,3.42,3.42,0,0,0,.59.66l1.21,1.06a5.35,5.35,0,0,1,1,1.19,3,3,0,0,1,.42,1.63,2.5,2.5,0,0,1-.3,1.24,2.31,2.31,0,0,1-.85.85A2.66,2.66,0,0,1,494,187.45Z" style="fill:#263238"></path><path d="M497.45,187.32V177.6h1.75v9.72Z" style="fill:#263238"></path><path d="M500.7,187.32V177.6h1.24l2.36,5.54V177.6h1.46v9.72h-1.17l-2.38-5.81v5.81Z" style="fill:#263238"></path><path d="M507.24,187.32V177.6h4.08v1.25H509v2.79h1.81v1.24H509v3.22h2.32v1.22Z" style="fill:#263238"></path><path d="M514.83,187.45a2.86,2.86,0,0,1-1.47-.34,2.17,2.17,0,0,1-.89-1,4.23,4.23,0,0,1-.33-1.62l1.52-.3a4.62,4.62,0,0,0,.14,1,1.47,1.47,0,0,0,.35.67.8.8,0,0,0,.61.23.71.71,0,0,0,.62-.25,1.14,1.14,0,0,0,.18-.66,1.77,1.77,0,0,0-.29-1,4.45,4.45,0,0,0-.77-.82l-1.22-1.08a3.34,3.34,0,0,1-.82-1,2.64,2.64,0,0,1-.31-1.35,2.27,2.27,0,0,1,.67-1.77,2.58,2.58,0,0,1,1.84-.63,2.76,2.76,0,0,1,1.14.21,1.89,1.89,0,0,1,.72.58,2.47,2.47,0,0,1,.4.85,4.65,4.65,0,0,1,.17,1l-1.51.27a5.93,5.93,0,0,0-.1-.82,1.1,1.1,0,0,0-.28-.56.75.75,0,0,0-.58-.21.76.76,0,0,0-.61.26,1,1,0,0,0-.21.64,1.43,1.43,0,0,0,.21.81,3.12,3.12,0,0,0,.59.66l1.21,1.06a5.06,5.06,0,0,1,1,1.19,2.94,2.94,0,0,1,.43,1.63,2.5,2.5,0,0,1-.3,1.24,2.26,2.26,0,0,1-.86.85A2.59,2.59,0,0,1,514.83,187.45Z" style="fill:#263238"></path><path d="M520.66,187.45a2.86,2.86,0,0,1-1.47-.34,2.17,2.17,0,0,1-.89-1,4.23,4.23,0,0,1-.33-1.62l1.52-.3a4.62,4.62,0,0,0,.14,1,1.47,1.47,0,0,0,.35.67.81.81,0,0,0,.62.23.7.7,0,0,0,.61-.25,1.14,1.14,0,0,0,.18-.66,1.77,1.77,0,0,0-.29-1,4.45,4.45,0,0,0-.77-.82l-1.22-1.08a3.34,3.34,0,0,1-.82-1,2.64,2.64,0,0,1-.31-1.35,2.27,2.27,0,0,1,.67-1.77,2.58,2.58,0,0,1,1.84-.63,2.76,2.76,0,0,1,1.14.21,1.89,1.89,0,0,1,.72.58,2.68,2.68,0,0,1,.41.85,5.35,5.35,0,0,1,.16,1l-1.51.27a4.71,4.71,0,0,0-.1-.82A1,1,0,0,0,521,179a.75.75,0,0,0-.58-.21.74.74,0,0,0-.6.26,1,1,0,0,0-.21.64,1.43,1.43,0,0,0,.2.81,3.42,3.42,0,0,0,.59.66l1.21,1.06a5.35,5.35,0,0,1,1,1.19,3,3,0,0,1,.42,1.63,2.5,2.5,0,0,1-.3,1.24,2.26,2.26,0,0,1-.86.85A2.59,2.59,0,0,1,520.66,187.45Z" style="fill:#263238"></path><path d="M486.3,326.28a2.84,2.84,0,0,1-1.46-.35,2.08,2.08,0,0,1-.89-1,4.42,4.42,0,0,1-.34-1.62l1.53-.3a4.76,4.76,0,0,0,.13,1,1.47,1.47,0,0,0,.35.66.83.83,0,0,0,.62.24.69.69,0,0,0,.61-.26A1.11,1.11,0,0,0,487,324a1.78,1.78,0,0,0-.28-1.05,4.79,4.79,0,0,0-.77-.81l-1.23-1.08a3.8,3.8,0,0,1-.82-1,2.81,2.81,0,0,1-.3-1.35,2.31,2.31,0,0,1,.67-1.78,2.57,2.57,0,0,1,1.83-.62,2.7,2.7,0,0,1,1.14.21,1.77,1.77,0,0,1,.73.58,2.71,2.71,0,0,1,.4.84,4.63,4.63,0,0,1,.17,1l-1.51.26a6.13,6.13,0,0,0-.1-.82,1.23,1.23,0,0,0-.28-.56.76.76,0,0,0-.58-.2.74.74,0,0,0-.61.25,1,1,0,0,0-.21.65,1.57,1.57,0,0,0,.2.81,3.43,3.43,0,0,0,.59.65l1.22,1.07a5,5,0,0,1,1,1.18,3.06,3.06,0,0,1,.43,1.64,2.5,2.5,0,0,1-.31,1.23,2.17,2.17,0,0,1-.85.85A2.63,2.63,0,0,1,486.3,326.28Z" style="fill:#fff"></path><path d="M489.63,318.1v-1.35h1.63v1.35Zm0,8v-6.93h1.63v6.93Z" style="fill:#fff"></path><path d="M494.59,328.42a4.73,4.73,0,0,1-1.25-.14,1.86,1.86,0,0,1-.84-.44,1.06,1.06,0,0,1-.3-.78,1.28,1.28,0,0,1,.14-.59,1.47,1.47,0,0,1,.38-.45,3,3,0,0,1,.52-.32,1.18,1.18,0,0,1-.61-.35.84.84,0,0,1-.21-.57,1.2,1.2,0,0,1,.2-.7,3.9,3.9,0,0,1,.57-.61,1.81,1.81,0,0,1-.56-.75,3.23,3.23,0,0,1-.19-1.18,3.14,3.14,0,0,1,.26-1.34,1.74,1.74,0,0,1,.76-.82,2.42,2.42,0,0,1,1.22-.28,2.3,2.3,0,0,1,.92.16,1.46,1.46,0,0,1,.61.49,2.12,2.12,0,0,1,.34-.36,1.87,1.87,0,0,1,.55-.36l.22-.1.39.88a2.44,2.44,0,0,0-.35.12,3.38,3.38,0,0,0-.44.18l-.34.17a2.13,2.13,0,0,1,.18.6,3.31,3.31,0,0,1,.08.68,3.27,3.27,0,0,1-.23,1.27,1.81,1.81,0,0,1-.7.84,2.38,2.38,0,0,1-1.23.29,2.74,2.74,0,0,1-.5,0l-.44-.1-.14.22a.58.58,0,0,0-.06.26.23.23,0,0,0,.14.21,1.18,1.18,0,0,0,.48.12l1.46.15a1.84,1.84,0,0,1,1.26.53,1.72,1.72,0,0,1,.41,1.22,1.82,1.82,0,0,1-.28,1,1.76,1.76,0,0,1-.88.64A4.69,4.69,0,0,1,494.59,328.42Zm.18-1.22a2.86,2.86,0,0,0,1-.13.53.53,0,0,0,.25-.79.54.54,0,0,0-.3-.2,3,3,0,0,0-.61-.12l-1.19-.1a1.61,1.61,0,0,0-.23.22.91.91,0,0,0-.16.24.67.67,0,0,0-.06.28.48.48,0,0,0,.28.45A2.42,2.42,0,0,0,494.77,327.2Zm-.09-4.28a.66.66,0,0,0,.34-.08.53.53,0,0,0,.21-.25,1.37,1.37,0,0,0,.09-.44,5.53,5.53,0,0,0,0-.61,5.59,5.59,0,0,0,0-.62,1.37,1.37,0,0,0-.09-.44.48.48,0,0,0-.19-.26.76.76,0,0,0-.72,0,.46.46,0,0,0-.2.25,1.68,1.68,0,0,0-.1.44,5.78,5.78,0,0,0,0,.63,5.15,5.15,0,0,0,0,.59,1.25,1.25,0,0,0,.09.43.58.58,0,0,0,.21.27A.64.64,0,0,0,494.68,322.92Z" style="fill:#fff"></path><path d="M498.18,326.14v-6.93h1.63v.69a3.56,3.56,0,0,1,.79-.58,1.81,1.81,0,0,1,.89-.22,1.05,1.05,0,0,1,.69.21,1.31,1.31,0,0,1,.37.56,2.27,2.27,0,0,1,.12.75v5.52H501V321a1,1,0,0,0-.1-.48.39.39,0,0,0-.37-.17.79.79,0,0,0-.37.1,2.06,2.06,0,0,0-.39.24v5.5Z" style="fill:#fff"></path><path d="M507.9,326.25a1,1,0,0,1-.67-.21,1.19,1.19,0,0,1-.39-.56,2.36,2.36,0,0,1-.12-.75v-5.52h1.64v5.22a.9.9,0,0,0,.1.48.4.4,0,0,0,.38.18.7.7,0,0,0,.36-.1,2.06,2.06,0,0,0,.37-.23v-5.55h1.63v6.93h-1.63v-.66a3.23,3.23,0,0,1-.77.56A2,2,0,0,1,507.9,326.25Z" style="fill:#fff"></path><path d="M512.46,328.42v-9.21h1.63v.53a2.49,2.49,0,0,1,.66-.47,1.8,1.8,0,0,1,.76-.17,1.25,1.25,0,0,1,.77.22,1.37,1.37,0,0,1,.46.57,2.64,2.64,0,0,1,.24.75,5.32,5.32,0,0,1,.06.78v2.35a4.5,4.5,0,0,1-.16,1.25,2.09,2.09,0,0,1-.51.9,1.34,1.34,0,0,1-1,.33,1.46,1.46,0,0,1-.7-.18,3.32,3.32,0,0,1-.63-.45v2.8Zm2.35-3.31a.45.45,0,0,0,.39-.17,1,1,0,0,0,.17-.47,4.31,4.31,0,0,0,0-.64v-2.49a2.61,2.61,0,0,0,0-.58.82.82,0,0,0-.18-.41.44.44,0,0,0-.38-.16.88.88,0,0,0-.38.09,1.85,1.85,0,0,0-.33.21v4.38a2.21,2.21,0,0,0,.34.18A1.21,1.21,0,0,0,514.81,325.11Z" style="fill:#fff"></path><path d="M479.87,235.46v-1.85a4.3,4.3,0,0,1-3.39-1.48,6.61,6.61,0,0,1-1.22-3.94l2.82-.55a9.46,9.46,0,0,0,.24,1.83,2.76,2.76,0,0,0,.63,1.22,1.54,1.54,0,0,0,1.14.43,1.31,1.31,0,0,0,1.13-.47,2,2,0,0,0,.34-1.21,3.17,3.17,0,0,0-.54-1.91,8.73,8.73,0,0,0-1.4-1.5l-2.27-2a8.35,8.35,0,0,1-1.08-1.16,4.94,4.94,0,0,1-.73-1.36,5.61,5.61,0,0,1-.26-1.78,4.2,4.2,0,0,1,1.15-3.14,4.58,4.58,0,0,1,3.08-1.25v-1.78h.95v1.76a4,4,0,0,1,1.85.5,3.23,3.23,0,0,1,1.16,1.1,5,5,0,0,1,.64,1.51,9.86,9.86,0,0,1,.26,1.74l-2.78.49a10.43,10.43,0,0,0-.18-1.51,2.06,2.06,0,0,0-.5-1.06,1.27,1.27,0,0,0-1.07-.34,1.42,1.42,0,0,0-1.13.48,1.76,1.76,0,0,0-.39,1.17,2.57,2.57,0,0,0,.42,1.53,7.83,7.83,0,0,0,1,1.16l2.25,2a12.31,12.31,0,0,1,1.31,1.39,6.35,6.35,0,0,1,1,1.68,5.8,5.8,0,0,1,.36,2.11,4.57,4.57,0,0,1-.47,2.13,3.89,3.89,0,0,1-1.33,1.51,4.51,4.51,0,0,1-2.06.71v1.87Z" style="fill:#263238"></path><path d="M486.26,233.39v-2.16l4.41-6.81c.33-.5.63-1,.92-1.44a7.8,7.8,0,0,0,.7-1.42,4.45,4.45,0,0,0,.28-1.62,2.78,2.78,0,0,0-.35-1.52,1.23,1.23,0,0,0-1.11-.53,1.46,1.46,0,0,0-1.1.4,2.12,2.12,0,0,0-.54,1,6.24,6.24,0,0,0-.14,1.41v.75h-3v-.79a7.69,7.69,0,0,1,.47-2.79,4,4,0,0,1,1.51-1.89,4.9,4.9,0,0,1,2.71-.68,4.44,4.44,0,0,1,3.44,1.24,4.83,4.83,0,0,1,1.15,3.44,5.94,5.94,0,0,1-.31,2,7.87,7.87,0,0,1-.81,1.71q-.51.81-1.11,1.68l-3.66,5.55h5.43v2.45Z" style="fill:#263238"></path><path d="M501.81,233.66A4.85,4.85,0,0,1,499,233a3.39,3.39,0,0,1-1.36-1.87,9.71,9.71,0,0,1-.37-2.85h3a9.41,9.41,0,0,0,.12,1.6,2,2,0,0,0,.48,1.08,1.36,1.36,0,0,0,1.07.37,1.19,1.19,0,0,0,1.09-.5,3.05,3.05,0,0,0,.41-1.39c.06-.59.09-1.29.09-2.08a12,12,0,0,0-.12-1.81,2.54,2.54,0,0,0-.47-1.2,1.36,1.36,0,0,0-1.11-.43,1.42,1.42,0,0,0-1.06.43,2.56,2.56,0,0,0-.61,1.13h-2.63l.18-9.94h8v2.73h-5.47l-.18,4.3a2.41,2.41,0,0,1,1-.64,4.7,4.7,0,0,1,1.4-.28,3.41,3.41,0,0,1,2.29.59,3.75,3.75,0,0,1,1.3,1.92,9.53,9.53,0,0,1,.42,3,17.4,17.4,0,0,1-.18,2.6,5.89,5.89,0,0,1-.7,2.06,3.45,3.45,0,0,1-1.42,1.36A5.09,5.09,0,0,1,501.81,233.66Z" style="fill:#263238"></path><path d="M507.89,233.39v-2h2v2Z" style="fill:#263238"></path><path d="M514.24,233.56a3.67,3.67,0,0,1-1.73-.36,2.19,2.19,0,0,1-1-1,4,4,0,0,1-.31-1.68v-.17h2a2.93,2.93,0,0,0,.2,1.22.87.87,0,0,0,.86.4.82.82,0,0,0,.63-.24,1.58,1.58,0,0,0,.33-.79,8.11,8.11,0,0,0,.11-1.46V228a1.4,1.4,0,0,1-.63.54,2.55,2.55,0,0,1-1,.21,2.35,2.35,0,0,1-1.55-.46,2.59,2.59,0,0,1-.82-1.28,6.09,6.09,0,0,1-.25-1.83,6.42,6.42,0,0,1,.31-2.11,2.9,2.9,0,0,1,1-1.43,3.09,3.09,0,0,1,1.85-.51,3,3,0,0,1,1.83.5,2.87,2.87,0,0,1,1,1.39,6,6,0,0,1,.32,2v4.31a7.5,7.5,0,0,1-.28,2.14,2.9,2.9,0,0,1-1,1.52A2.93,2.93,0,0,1,514.24,233.56Zm0-6.41a1,1,0,0,0,.67-.21,1.85,1.85,0,0,0,.4-.45V224.6a4.58,4.58,0,0,0-.09-.95,1.48,1.48,0,0,0-.32-.69.84.84,0,0,0-.67-.26.8.8,0,0,0-.65.27,1.53,1.53,0,0,0-.33.75,6.12,6.12,0,0,0-.09,1.12,10.37,10.37,0,0,0,.06,1.17,1.6,1.6,0,0,0,.27.83A.86.86,0,0,0,514.25,227.15Z" style="fill:#263238"></path><path d="M522.05,233.56a3.63,3.63,0,0,1-1.72-.36,2.19,2.19,0,0,1-1-1,4,4,0,0,1-.32-1.68v-.17h2a2.76,2.76,0,0,0,.21,1.22c.13.27.42.4.86.4a.82.82,0,0,0,.63-.24,1.58,1.58,0,0,0,.33-.79,8.25,8.25,0,0,0,.1-1.46V228a1.4,1.4,0,0,1-.63.54,2.5,2.5,0,0,1-1,.21,2.33,2.33,0,0,1-1.55-.46,2.6,2.6,0,0,1-.83-1.28,7,7,0,0,1,.07-3.94,2.9,2.9,0,0,1,1-1.43,3.59,3.59,0,0,1,3.67,0,2.81,2.81,0,0,1,1,1.39,5.75,5.75,0,0,1,.32,2v4.31a7.88,7.88,0,0,1-.27,2.14,3,3,0,0,1-1,1.52A3,3,0,0,1,522.05,233.56Zm0-6.41a1,1,0,0,0,.67-.21,2,2,0,0,0,.39-.45V224.6a4.58,4.58,0,0,0-.09-.95,1.39,1.39,0,0,0-.32-.69.83.83,0,0,0-.67-.26.82.82,0,0,0-.65.27,1.62,1.62,0,0,0-.32.75,6.12,6.12,0,0,0-.09,1.12c0,.43,0,.82,0,1.17a1.7,1.7,0,0,0,.28.83A.86.86,0,0,0,522.07,227.15Z" style="fill:#263238"></path><line x1="473.34" y1="247.69" x2="527.33" y2="247.69" style="fill:none;stroke:#263238;stroke-linecap:round;stroke-linejoin:round"></line><line x1="473.34" y1="258.14" x2="527.33" y2="258.14" style="fill:none;stroke:#263238;stroke-linecap:round;stroke-linejoin:round"></line><line x1="473.34" y1="268.59" x2="527.33" y2="268.59" style="fill:none;stroke:#263238;stroke-linecap:round;stroke-linejoin:round"></line><line x1="473.34" y1="279.04" x2="527.33" y2="279.04" style="fill:none;stroke:#263238;stroke-linecap:round;stroke-linejoin:round"></line><line x1="473.34" y1="289.49" x2="527.33" y2="289.49" style="fill:none;stroke:#263238;stroke-linecap:round;stroke-linejoin:round"></line><polygon points="475.1 191.11 476.28 194.76 480.12 194.76 477.01 197.01 478.2 200.66 475.1 198.41 472 200.66 473.18 197.01 470.08 194.76 473.91 194.76 475.1 191.11" style="fill:#92E3A9"></polygon><polygon points="487.72 191.11 488.9 194.76 492.74 194.76 489.63 197.01 490.82 200.66 487.72 198.41 484.61 200.66 485.8 197.01 482.7 194.76 486.53 194.76 487.72 191.11" style="fill:#92E3A9"></polygon><polygon points="500.33 191.11 501.52 194.76 505.36 194.76 502.25 197.01 503.44 200.66 500.33 198.41 497.23 200.66 498.42 197.01 495.31 194.76 499.15 194.76 500.33 191.11" style="fill:#92E3A9"></polygon><polygon points="512.95 191.11 514.14 194.76 517.97 194.76 514.87 197.01 516.06 200.66 512.95 198.41 509.85 200.66 511.04 197.01 507.93 194.76 511.77 194.76 512.95 191.11" style="fill:#92E3A9"></polygon><polygon points="525.57 191.11 526.76 194.76 530.59 194.76 527.49 197.01 528.67 200.66 525.57 198.41 522.47 200.66 523.65 197.01 520.55 194.76 524.39 194.76 525.57 191.11" style="fill:#92E3A9"></polygon></g><g id="freepik--premium-option--inject-2"><rect x="344.19" y="169.87" width="98.12" height="181.74" style="fill:#92E3A9;stroke:#263238;stroke-linecap:round;stroke-linejoin:round"></rect><rect x="344.19" y="169.87" width="98.12" height="36" style="fill:#fff;stroke:#263238;stroke-linecap:round;stroke-linejoin:round"></rect><rect x="358.1" y="310.99" width="70.31" height="22" rx="9.5" style="fill:#263238;stroke:#263238;stroke-linecap:round;stroke-linejoin:round"></rect><path d="M371.75,187.32V177.6h2.86a2.82,2.82,0,0,1,1.42.32,1.93,1.93,0,0,1,.8,1,3.71,3.71,0,0,1,.26,1.49,3.22,3.22,0,0,1-.32,1.53,2,2,0,0,1-.91.85,3.38,3.38,0,0,1-1.37.26h-1v4.32Zm1.78-5.57h.67a1.57,1.57,0,0,0,.75-.14.74.74,0,0,0,.37-.44,2.61,2.61,0,0,0,.1-.82,4.07,4.07,0,0,0-.07-.86A.76.76,0,0,0,375,179a1.66,1.66,0,0,0-.81-.15h-.67Z" style="fill:#263238"></path><path d="M378,187.32V177.6h2.33a5.32,5.32,0,0,1,1.66.23,2,2,0,0,1,1,.8,2.86,2.86,0,0,1,.35,1.54,4.8,4.8,0,0,1-.1,1.05,2.11,2.11,0,0,1-.37.8,1.65,1.65,0,0,1-.71.51l1.35,4.79H381.8l-1.18-4.45h-.82v4.45Zm1.77-5.57h.56a1.91,1.91,0,0,0,.82-.15.9.9,0,0,0,.44-.48,2.47,2.47,0,0,0,.13-.84,1.84,1.84,0,0,0-.27-1.1,1.22,1.22,0,0,0-1-.37h-.65Z" style="fill:#263238"></path><path d="M384.74,187.32V177.6h4.08v1.25h-2.31v2.79h1.81v1.24h-1.81v3.22h2.33v1.22Z" style="fill:#263238"></path><path d="M389.85,187.32l.17-9.72h1.83l1.38,6.73,1.44-6.73h1.78l.18,9.72h-1.32l-.15-6.76-1.38,6.76h-1.06l-1.41-6.78-.13,6.78Z" style="fill:#263238"></path><path d="M398,187.32V177.6h1.76v9.72Z" style="fill:#263238"></path><path d="M404,187.45a3.07,3.07,0,0,1-1.68-.39,2,2,0,0,1-.83-1.13,6,6,0,0,1-.23-1.75V177.6H403v6.78a5.81,5.81,0,0,0,.06.86,1.29,1.29,0,0,0,.28.65,1.07,1.07,0,0,0,1.35,0,1.28,1.28,0,0,0,.27-.65,4.68,4.68,0,0,0,.07-.86V177.6h1.72v6.58a6,6,0,0,1-.23,1.75,2.07,2.07,0,0,1-.82,1.13A3.08,3.08,0,0,1,404,187.45Z" style="fill:#263238"></path><path d="M408.06,187.32l.17-9.72h1.84l1.38,6.73,1.44-6.73h1.77l.18,9.72h-1.32l-.14-6.76L412,187.32h-1.07l-1.4-6.78-.13,6.78Z" style="fill:#263238"></path><path d="M379.22,326.28a2.86,2.86,0,0,1-1.47-.35,2.06,2.06,0,0,1-.88-1,4.22,4.22,0,0,1-.34-1.62l1.52-.3a4.72,4.72,0,0,0,.14,1,1.38,1.38,0,0,0,.35.66.83.83,0,0,0,.62.24.69.69,0,0,0,.61-.26A1.11,1.11,0,0,0,380,324a1.79,1.79,0,0,0-.29-1.05,4.42,4.42,0,0,0-.77-.81l-1.22-1.08a3.8,3.8,0,0,1-.82-1,2.7,2.7,0,0,1-.31-1.35,2.31,2.31,0,0,1,.67-1.78,2.58,2.58,0,0,1,1.84-.62,2.76,2.76,0,0,1,1.14.21,1.83,1.83,0,0,1,.73.58,3,3,0,0,1,.4.84,5.32,5.32,0,0,1,.17,1l-1.52.26a4.84,4.84,0,0,0-.1-.82,1.06,1.06,0,0,0-.28-.56.74.74,0,0,0-.58-.2.73.73,0,0,0-.6.25,1,1,0,0,0-.21.65,1.48,1.48,0,0,0,.2.81,3.13,3.13,0,0,0,.59.65l1.21,1.07a5.08,5.08,0,0,1,1,1.18,3.05,3.05,0,0,1,.42,1.64,2.49,2.49,0,0,1-.3,1.23,2.24,2.24,0,0,1-.85.85A2.63,2.63,0,0,1,379.22,326.28Z" style="fill:#fff"></path><path d="M382.54,318.1v-1.35h1.63v1.35Zm0,8v-6.93h1.63v6.93Z" style="fill:#fff"></path><path d="M387.51,328.42a4.73,4.73,0,0,1-1.25-.14,1.86,1.86,0,0,1-.84-.44,1.06,1.06,0,0,1-.3-.78,1.28,1.28,0,0,1,.14-.59,1.47,1.47,0,0,1,.38-.45,3.36,3.36,0,0,1,.51-.32,1.19,1.19,0,0,1-.6-.35.84.84,0,0,1-.21-.57,1.14,1.14,0,0,1,.2-.7,3.79,3.79,0,0,1,.56-.61,1.88,1.88,0,0,1-.55-.75,3,3,0,0,1-.19-1.18,3.14,3.14,0,0,1,.26-1.34,1.72,1.72,0,0,1,.75-.82,2.45,2.45,0,0,1,1.22-.28,2.32,2.32,0,0,1,.93.16,1.53,1.53,0,0,1,.61.49,1.67,1.67,0,0,1,.33-.36A1.92,1.92,0,0,1,390,319l.21-.1.4.88-.36.12a3.93,3.93,0,0,0-.43.18,2.12,2.12,0,0,0-.34.17,3.09,3.09,0,0,1,.18.6,3.27,3.27,0,0,1,.07.68,3.1,3.1,0,0,1-.23,1.27,1.75,1.75,0,0,1-.7.84,2.33,2.33,0,0,1-1.23.29,2.63,2.63,0,0,1-.49,0,4.13,4.13,0,0,1-.44-.1,1.64,1.64,0,0,0-.14.22.48.48,0,0,0-.07.26.24.24,0,0,0,.15.21,1.1,1.1,0,0,0,.48.12l1.46.15a1.84,1.84,0,0,1,1.26.53,1.76,1.76,0,0,1,.41,1.22,1.9,1.9,0,0,1-.28,1,1.76,1.76,0,0,1-.88.64A4.73,4.73,0,0,1,387.51,328.42Zm.18-1.22a2.9,2.9,0,0,0,1-.13.48.48,0,0,0,.33-.48.57.57,0,0,0-.08-.31.63.63,0,0,0-.3-.2A3.11,3.11,0,0,0,388,326l-1.19-.1a1.7,1.7,0,0,0-.24.22,1.25,1.25,0,0,0-.16.24.67.67,0,0,0-.06.28.49.49,0,0,0,.29.45A2.39,2.39,0,0,0,387.69,327.2Zm-.1-4.28a.7.7,0,0,0,.35-.08.46.46,0,0,0,.2-.25,1.68,1.68,0,0,0,.1-.44,5.72,5.72,0,0,0,0-.61,5.82,5.82,0,0,0,0-.62,2.26,2.26,0,0,0-.09-.44.45.45,0,0,0-.2-.26.64.64,0,0,0-.36-.09.63.63,0,0,0-.35.09.53.53,0,0,0-.21.25,2.26,2.26,0,0,0-.09.44,5.78,5.78,0,0,0,0,.63c0,.22,0,.42,0,.59a1.51,1.51,0,0,0,.1.43.58.58,0,0,0,.21.27A.63.63,0,0,0,387.59,322.92Z" style="fill:#fff"></path><path d="M391.1,326.14v-6.93h1.63v.69a3.75,3.75,0,0,1,.78-.58,1.87,1.87,0,0,1,.9-.22,1,1,0,0,1,.68.21,1.23,1.23,0,0,1,.37.56,2.27,2.27,0,0,1,.12.75v5.52H394V321a1,1,0,0,0-.09-.48.41.41,0,0,0-.38-.17.76.76,0,0,0-.36.1,2.06,2.06,0,0,0-.39.24v5.5Z" style="fill:#fff"></path><path d="M400.82,326.25a1.06,1.06,0,0,1-.68-.21,1.24,1.24,0,0,1-.38-.56,2.36,2.36,0,0,1-.12-.75v-5.52h1.63v5.22a1,1,0,0,0,.1.48.41.41,0,0,0,.38.18.76.76,0,0,0,.37-.1,2.41,2.41,0,0,0,.36-.23v-5.55h1.64v6.93h-1.64v-.66a3.18,3.18,0,0,1-.76.56A2,2,0,0,1,400.82,326.25Z" style="fill:#fff"></path><path d="M405.38,328.42v-9.21H407v.53a2.49,2.49,0,0,1,.66-.47,1.79,1.79,0,0,1,.75-.17,1.23,1.23,0,0,1,.77.22,1.39,1.39,0,0,1,.47.57,2.62,2.62,0,0,1,.23.75,4.26,4.26,0,0,1,.07.78v2.35a4.5,4.5,0,0,1-.16,1.25,2,2,0,0,1-.52.9,1.31,1.31,0,0,1-.94.33,1.43,1.43,0,0,1-.7-.18,3.32,3.32,0,0,1-.63-.45v2.8Zm2.35-3.31a.48.48,0,0,0,.39-.17,1.13,1.13,0,0,0,.17-.47,6.28,6.28,0,0,0,0-.64v-2.49a3.39,3.39,0,0,0-.05-.58.82.82,0,0,0-.18-.41.46.46,0,0,0-.38-.16.85.85,0,0,0-.38.09,1.33,1.33,0,0,0-.33.21v4.38a1.74,1.74,0,0,0,.33.18A1.23,1.23,0,0,0,407.73,325.11Z" style="fill:#fff"></path><path d="M373.94,235.46v-1.85a4.31,4.31,0,0,1-3.39-1.48,6.61,6.61,0,0,1-1.22-3.94l2.82-.55a8.7,8.7,0,0,0,.25,1.83,2.65,2.65,0,0,0,.62,1.22,1.54,1.54,0,0,0,1.14.43,1.33,1.33,0,0,0,1.14-.47,2.08,2.08,0,0,0,.34-1.21,3.17,3.17,0,0,0-.54-1.91,9.14,9.14,0,0,0-1.4-1.5l-2.27-2a7.87,7.87,0,0,1-1.09-1.16,4.91,4.91,0,0,1-.72-1.36,5.33,5.33,0,0,1-.27-1.78,4.24,4.24,0,0,1,1.15-3.14,4.59,4.59,0,0,1,3.09-1.25v-1.78h1v1.76a4,4,0,0,1,1.85.5,3.4,3.4,0,0,1,1.16,1.1,5,5,0,0,1,.63,1.51,9,9,0,0,1,.26,1.74l-2.78.49a10.43,10.43,0,0,0-.18-1.51,2.05,2.05,0,0,0-.49-1.06,1.28,1.28,0,0,0-1.07-.34,1.44,1.44,0,0,0-1.14.48,1.75,1.75,0,0,0-.38,1.17,2.57,2.57,0,0,0,.42,1.53,7.21,7.21,0,0,0,1,1.16l2.25,2a12.31,12.31,0,0,1,1.31,1.39,6.09,6.09,0,0,1,1,1.68,5.59,5.59,0,0,1,.37,2.11,4.58,4.58,0,0,1-.48,2.13,3.81,3.81,0,0,1-1.33,1.51,4.47,4.47,0,0,1-2.05.71v1.87Z" style="fill:#263238"></path><path d="M382.76,233.39V218.9a4.14,4.14,0,0,1-.52.2c-.26.09-.54.17-.85.25l-.85.24-.54.17v-2.27c.21-.07.47-.18.78-.31l1-.45a9.1,9.1,0,0,0,1-.56,4.37,4.37,0,0,0,.74-.64h2.33v17.86Z" style="fill:#263238"></path><path d="M393.57,233.66a4.85,4.85,0,0,1-2.77-.67,3.35,3.35,0,0,1-1.36-1.87,9.71,9.71,0,0,1-.37-2.85h3a8.42,8.42,0,0,0,.13,1.6,2,2,0,0,0,.48,1.08,1.35,1.35,0,0,0,1.07.37,1.2,1.2,0,0,0,1.09-.5,3.18,3.18,0,0,0,.41-1.39c.06-.59.09-1.29.09-2.08a12,12,0,0,0-.12-1.81,2.44,2.44,0,0,0-.48-1.2,1.32,1.32,0,0,0-1.1-.43,1.4,1.4,0,0,0-1.06.43,2.68,2.68,0,0,0-.62,1.13h-2.62l.18-9.94h8v2.73H392l-.17,4.3a2.41,2.41,0,0,1,1-.64,4.64,4.64,0,0,1,1.4-.28,3.41,3.41,0,0,1,2.29.59,3.81,3.81,0,0,1,1.3,1.92,9.53,9.53,0,0,1,.42,3,16.11,16.11,0,0,1-.19,2.6,5.69,5.69,0,0,1-.69,2.06,3.45,3.45,0,0,1-1.42,1.36A5.09,5.09,0,0,1,393.57,233.66Z" style="fill:#263238"></path><path d="M399.65,233.39v-2h2v2Z" style="fill:#263238"></path><path d="M406,233.56a3.67,3.67,0,0,1-1.73-.36,2.19,2.19,0,0,1-1-1,4,4,0,0,1-.31-1.68v-.17h2a2.78,2.78,0,0,0,.2,1.22c.13.27.42.4.86.4a.82.82,0,0,0,.63-.24,1.58,1.58,0,0,0,.33-.79,8.11,8.11,0,0,0,.11-1.46V228a1.4,1.4,0,0,1-.63.54,2.55,2.55,0,0,1-1,.21,2.33,2.33,0,0,1-1.55-.46,2.6,2.6,0,0,1-.83-1.28,7.22,7.22,0,0,1,.07-3.94,2.9,2.9,0,0,1,1-1.43,3.09,3.09,0,0,1,1.85-.51,3,3,0,0,1,1.83.5,2.79,2.79,0,0,1,1,1.39,5.74,5.74,0,0,1,.33,2v4.31a7.87,7.87,0,0,1-.28,2.14,3,3,0,0,1-1,1.52A3,3,0,0,1,406,233.56Zm0-6.41a1,1,0,0,0,.67-.21,2.09,2.09,0,0,0,.4-.45V224.6a4.58,4.58,0,0,0-.09-.95,1.39,1.39,0,0,0-.33-.69.8.8,0,0,0-.66-.26.84.84,0,0,0-.66.27,1.62,1.62,0,0,0-.32.75,6.12,6.12,0,0,0-.09,1.12c0,.43,0,.82.05,1.17a1.7,1.7,0,0,0,.28.83A.86.86,0,0,0,406,227.15Z" style="fill:#263238"></path><path d="M413.81,233.56a3.63,3.63,0,0,1-1.72-.36,2.19,2.19,0,0,1-1-1,4,4,0,0,1-.32-1.68v-.17h2a2.93,2.93,0,0,0,.2,1.22.88.88,0,0,0,.87.4.82.82,0,0,0,.63-.24,1.58,1.58,0,0,0,.33-.79,8.25,8.25,0,0,0,.1-1.46V228a1.4,1.4,0,0,1-.63.54,2.5,2.5,0,0,1-1,.21,2.38,2.38,0,0,1-1.56-.46,2.59,2.59,0,0,1-.82-1.28,6.09,6.09,0,0,1-.25-1.83,6.41,6.41,0,0,1,.32-2.11,2.9,2.9,0,0,1,1-1.43,3.59,3.59,0,0,1,3.67,0,2.87,2.87,0,0,1,1,1.39,6,6,0,0,1,.32,2v4.31a7.5,7.5,0,0,1-.28,2.14,2.9,2.9,0,0,1-1,1.52A2.93,2.93,0,0,1,413.81,233.56Zm0-6.41a1,1,0,0,0,.66-.21,1.85,1.85,0,0,0,.4-.45V224.6a4.58,4.58,0,0,0-.09-.95,1.48,1.48,0,0,0-.32-.69.84.84,0,0,0-.67-.26.8.8,0,0,0-.65.27,1.53,1.53,0,0,0-.32.75,6.12,6.12,0,0,0-.09,1.12,10.52,10.52,0,0,0,.05,1.17,1.6,1.6,0,0,0,.28.83A.86.86,0,0,0,413.83,227.15Z" style="fill:#263238"></path><line x1="366.25" y1="247.69" x2="420.25" y2="247.69" style="fill:none;stroke:#263238;stroke-linecap:round;stroke-linejoin:round"></line><line x1="366.25" y1="258.14" x2="420.25" y2="258.14" style="fill:none;stroke:#263238;stroke-linecap:round;stroke-linejoin:round"></line><line x1="366.25" y1="268.59" x2="420.25" y2="268.59" style="fill:none;stroke:#263238;stroke-linecap:round;stroke-linejoin:round"></line><line x1="366.25" y1="279.04" x2="420.25" y2="279.04" style="fill:none;stroke:#263238;stroke-linecap:round;stroke-linejoin:round"></line><polygon points="380.82 191.11 382 194.76 385.83 194.76 382.73 197.01 383.92 200.66 380.82 198.41 377.71 200.66 378.9 197.01 375.8 194.76 379.63 194.76 380.82 191.11" style="fill:#92E3A9"></polygon><polygon points="393.25 191.11 394.44 194.76 398.27 194.76 395.17 197.01 396.35 200.66 393.25 198.41 390.15 200.66 391.33 197.01 388.23 194.76 392.07 194.76 393.25 191.11" style="fill:#92E3A9"></polygon><polygon points="405.69 191.11 406.87 194.76 410.7 194.76 407.6 197.01 408.79 200.66 405.69 198.41 402.58 200.66 403.77 197.01 400.67 194.76 404.5 194.76 405.69 191.11" style="fill:#92E3A9"></polygon></g><g id="freepik--standard-option--inject-2"><rect x="237.91" y="169.87" width="98.12" height="181.74" style="fill:#92E3A9;stroke:#263238;stroke-linecap:round;stroke-linejoin:round"></rect><rect x="237.91" y="169.87" width="98.12" height="36" style="fill:#fff;stroke:#263238;stroke-linecap:round;stroke-linejoin:round"></rect><rect x="251.82" y="310.99" width="70.31" height="22" rx="9.5" style="fill:#263238;stroke:#263238;stroke-linecap:round;stroke-linejoin:round"></rect><line x1="259.4" y1="247.69" x2="313.39" y2="247.69" style="fill:none;stroke:#263238;stroke-linecap:round;stroke-linejoin:round"></line><line x1="259.4" y1="258.14" x2="313.39" y2="258.14" style="fill:none;stroke:#263238;stroke-linecap:round;stroke-linejoin:round"></line><line x1="259.4" y1="268.59" x2="313.39" y2="268.59" style="fill:none;stroke:#263238;stroke-linecap:round;stroke-linejoin:round"></line><path d="M264.37,187.45a2.84,2.84,0,0,1-1.46-.34,2.17,2.17,0,0,1-.89-1,4.42,4.42,0,0,1-.34-1.62l1.53-.3a4.07,4.07,0,0,0,.14,1,1.46,1.46,0,0,0,.34.67.84.84,0,0,0,.62.23.69.69,0,0,0,.61-.25,1.14,1.14,0,0,0,.18-.66,1.77,1.77,0,0,0-.28-1,4.82,4.82,0,0,0-.77-.82l-1.23-1.08a3.67,3.67,0,0,1-.82-1,2.75,2.75,0,0,1-.3-1.35,2.27,2.27,0,0,1,.67-1.77,2.58,2.58,0,0,1,1.83-.63,2.7,2.7,0,0,1,1.14.21,1.85,1.85,0,0,1,.73.58,2.66,2.66,0,0,1,.4.85,4.65,4.65,0,0,1,.17,1l-1.51.27a5.93,5.93,0,0,0-.1-.82,1.18,1.18,0,0,0-.28-.56.76.76,0,0,0-.58-.21.74.74,0,0,0-.61.26,1,1,0,0,0-.21.64,1.43,1.43,0,0,0,.21.81,3.34,3.34,0,0,0,.58.66l1.22,1.06a5.06,5.06,0,0,1,1,1.19,2.94,2.94,0,0,1,.43,1.63,2.4,2.4,0,0,1-.31,1.24,2.24,2.24,0,0,1-.85.85A2.6,2.6,0,0,1,264.37,187.45Z" style="fill:#263238"></path><path d="M268.82,187.32v-8.41h-1.55V177.6h4.85v1.31H270.6v8.41Z" style="fill:#263238"></path><path d="M272.28,187.32l1.94-9.72h1.9l1.94,9.72h-1.64l-.38-2.24h-1.7l-.39,2.24Zm2.24-3.37h1.32l-.66-4.08Z" style="fill:#263238"></path><path d="M279,187.32V177.6h1.23l2.37,5.54V177.6h1.46v9.72h-1.17l-2.38-5.81v5.81Z" style="fill:#263238"></path><path d="M285.53,187.32V177.6h2.29a4.39,4.39,0,0,1,1.85.32,1.89,1.89,0,0,1,.95,1,4.41,4.41,0,0,1,.28,1.7v3.56a4.65,4.65,0,0,1-.28,1.75,2,2,0,0,1-.93,1,3.93,3.93,0,0,1-1.8.34Zm1.77-1.24h.54a1.44,1.44,0,0,0,.88-.21,1,1,0,0,0,.32-.63,7.36,7.36,0,0,0,.06-1V180.5a4.05,4.05,0,0,0-.08-.94.81.81,0,0,0-.35-.53,1.64,1.64,0,0,0-.85-.17h-.52Z" style="fill:#263238"></path><path d="M291.65,187.32l1.94-9.72h1.9l1.94,9.72h-1.64l-.39-2.24h-1.69l-.39,2.24Zm2.24-3.37h1.32l-.66-4.08Z" style="fill:#263238"></path><path d="M298.35,187.32V177.6h2.33a5.39,5.39,0,0,1,1.67.23,2,2,0,0,1,1,.8,3,3,0,0,1,.35,1.54,4.77,4.77,0,0,1-.11,1.05,2,2,0,0,1-.36.8,1.62,1.62,0,0,1-.72.51l1.36,4.79h-1.78L301,182.87h-.82v4.45Zm1.78-5.57h.55a1.85,1.85,0,0,0,.82-.15.87.87,0,0,0,.44-.48,2.23,2.23,0,0,0,.14-.84,1.91,1.91,0,0,0-.27-1.1,1.23,1.23,0,0,0-1-.37h-.65Z" style="fill:#263238"></path><path d="M305.06,187.32V177.6h2.29a4.41,4.41,0,0,1,1.86.32,1.93,1.93,0,0,1,1,1,4.61,4.61,0,0,1,.28,1.7v3.56a4.86,4.86,0,0,1-.28,1.75,2,2,0,0,1-.94,1,3.85,3.85,0,0,1-1.79.34Zm1.78-1.24h.54a1.39,1.39,0,0,0,.87-.21,1,1,0,0,0,.33-.63,7.36,7.36,0,0,0,.06-1V180.5a4.69,4.69,0,0,0-.08-.94.85.85,0,0,0-.35-.53,1.68,1.68,0,0,0-.86-.17h-.51Z" style="fill:#263238"></path><path d="M272.07,326.28a2.88,2.88,0,0,1-1.47-.35,2.11,2.11,0,0,1-.88-1,4.42,4.42,0,0,1-.34-1.62l1.53-.3a4.76,4.76,0,0,0,.13,1,1.47,1.47,0,0,0,.35.66.83.83,0,0,0,.62.24.69.69,0,0,0,.61-.26,1.11,1.11,0,0,0,.18-.65,1.72,1.72,0,0,0-.29-1.05,4.7,4.7,0,0,0-.76-.81l-1.23-1.08a3.8,3.8,0,0,1-.82-1,2.81,2.81,0,0,1-.31-1.35,2.34,2.34,0,0,1,.67-1.78,2.6,2.6,0,0,1,1.84-.62,2.7,2.7,0,0,1,1.14.21,1.77,1.77,0,0,1,.73.58,2.71,2.71,0,0,1,.4.84,5.32,5.32,0,0,1,.17,1l-1.51.26a6,6,0,0,0-.11-.82,1.13,1.13,0,0,0-.27-.56.77.77,0,0,0-.58-.2.74.74,0,0,0-.61.25,1,1,0,0,0-.21.65,1.57,1.57,0,0,0,.2.81,3.43,3.43,0,0,0,.59.65l1.21,1.07a4.86,4.86,0,0,1,1,1.18,3.06,3.06,0,0,1,.43,1.64,2.5,2.5,0,0,1-.31,1.23,2.17,2.17,0,0,1-.85.85A2.63,2.63,0,0,1,272.07,326.28Z" style="fill:#fff"></path><path d="M275.39,318.1v-1.35H277v1.35Zm0,8v-6.93H277v6.93Z" style="fill:#fff"></path><path d="M280.36,328.42a4.73,4.73,0,0,1-1.25-.14,1.86,1.86,0,0,1-.84-.44,1.06,1.06,0,0,1-.3-.78,1.28,1.28,0,0,1,.14-.59,1.47,1.47,0,0,1,.38-.45,3.36,3.36,0,0,1,.51-.32,1.19,1.19,0,0,1-.6-.35.84.84,0,0,1-.21-.57,1.2,1.2,0,0,1,.2-.7,3.9,3.9,0,0,1,.57-.61,1.81,1.81,0,0,1-.56-.75,3,3,0,0,1-.19-1.18,3.14,3.14,0,0,1,.26-1.34,1.69,1.69,0,0,1,.76-.82,2.38,2.38,0,0,1,1.21-.28,2.32,2.32,0,0,1,.93.16,1.46,1.46,0,0,1,.61.49,2.12,2.12,0,0,1,.34-.36,1.87,1.87,0,0,1,.55-.36l.22-.1.39.88a2.08,2.08,0,0,0-.35.12,3.38,3.38,0,0,0-.44.18l-.34.17a3.09,3.09,0,0,1,.18.6,3.61,3.61,0,0,1-.15,1.95,1.83,1.83,0,0,1-.71.84,2.33,2.33,0,0,1-1.23.29,2.7,2.7,0,0,1-.49,0,4.13,4.13,0,0,1-.44-.1,1.64,1.64,0,0,0-.14.22.59.59,0,0,0-.07.26.24.24,0,0,0,.15.21,1.14,1.14,0,0,0,.48.12l1.46.15a1.84,1.84,0,0,1,1.26.53,1.76,1.76,0,0,1,.41,1.22,1.82,1.82,0,0,1-.28,1,1.76,1.76,0,0,1-.88.64A4.69,4.69,0,0,1,280.36,328.42Zm.18-1.22a2.9,2.9,0,0,0,1-.13.48.48,0,0,0,.33-.48.49.49,0,0,0-.08-.31.58.58,0,0,0-.3-.2,3,3,0,0,0-.61-.12l-1.19-.1a1.21,1.21,0,0,0-.23.22,1,1,0,0,0-.17.24.67.67,0,0,0-.06.28.49.49,0,0,0,.29.45A2.39,2.39,0,0,0,280.54,327.2Zm-.1-4.28a.7.7,0,0,0,.35-.08.53.53,0,0,0,.21-.25,1.37,1.37,0,0,0,.09-.44,5.53,5.53,0,0,0,0-.61,5.59,5.59,0,0,0,0-.62,1.37,1.37,0,0,0-.09-.44.45.45,0,0,0-.2-.26.6.6,0,0,0-.36-.09.63.63,0,0,0-.35.09.46.46,0,0,0-.2.25,1.68,1.68,0,0,0-.1.44,5.78,5.78,0,0,0,0,.63c0,.22,0,.42,0,.59a1.51,1.51,0,0,0,.1.43.58.58,0,0,0,.21.27A.63.63,0,0,0,280.44,322.92Z" style="fill:#fff"></path><path d="M284,326.14v-6.93h1.63v.69a3.56,3.56,0,0,1,.79-.58,1.81,1.81,0,0,1,.89-.22,1,1,0,0,1,.68.21,1.24,1.24,0,0,1,.38.56,2.27,2.27,0,0,1,.12.75v5.52H286.8V321a1,1,0,0,0-.09-.48.4.4,0,0,0-.37-.17.76.76,0,0,0-.37.1,2.06,2.06,0,0,0-.39.24v5.5Z" style="fill:#fff"></path><path d="M293.67,326.25A1,1,0,0,1,293,326a1.19,1.19,0,0,1-.39-.56,2.36,2.36,0,0,1-.12-.75v-5.52h1.63v5.22a.9.9,0,0,0,.11.48.38.38,0,0,0,.37.18.74.74,0,0,0,.37-.1,2.49,2.49,0,0,0,.37-.23v-5.55H297v6.93h-1.63v-.66a3.44,3.44,0,0,1-.77.56A2,2,0,0,1,293.67,326.25Z" style="fill:#fff"></path><path d="M298.23,328.42v-9.21h1.63v.53a2.49,2.49,0,0,1,.66-.47,1.8,1.8,0,0,1,.76-.17,1.22,1.22,0,0,1,.76.22,1.39,1.39,0,0,1,.47.57,3,3,0,0,1,.24.75,5.32,5.32,0,0,1,.06.78v2.35a4.5,4.5,0,0,1-.16,1.25,2,2,0,0,1-.52.9,1.31,1.31,0,0,1-.94.33,1.43,1.43,0,0,1-.7-.18,3.32,3.32,0,0,1-.63-.45v2.8Zm2.35-3.31a.45.45,0,0,0,.39-.17,1.13,1.13,0,0,0,.17-.47,4.31,4.31,0,0,0,0-.64v-2.49a3.39,3.39,0,0,0-.05-.58.82.82,0,0,0-.18-.41.45.45,0,0,0-.38-.16.85.85,0,0,0-.38.09,1.85,1.85,0,0,0-.33.21v4.38a1.83,1.83,0,0,0,.34.18A1.16,1.16,0,0,0,300.58,325.11Z" style="fill:#fff"></path><path d="M271.11,235.46v-1.85a4.29,4.29,0,0,1-3.38-1.48,6.61,6.61,0,0,1-1.22-3.94l2.82-.55a9.46,9.46,0,0,0,.24,1.83,2.57,2.57,0,0,0,.63,1.22,1.51,1.51,0,0,0,1.13.43,1.33,1.33,0,0,0,1.14-.47,2,2,0,0,0,.34-1.21,3.17,3.17,0,0,0-.54-1.91,9.14,9.14,0,0,0-1.4-1.5l-2.27-2a8.35,8.35,0,0,1-1.08-1.16,4.94,4.94,0,0,1-.73-1.36,5.61,5.61,0,0,1-.26-1.78,4.23,4.23,0,0,1,1.14-3.14,4.63,4.63,0,0,1,3.09-1.25v-1.78h.95v1.76a4,4,0,0,1,1.85.5,3.31,3.31,0,0,1,1.16,1.1,5,5,0,0,1,.64,1.51,9,9,0,0,1,.25,1.74l-2.78.49a10.52,10.52,0,0,0-.17-1.51,2.14,2.14,0,0,0-.5-1.06,1.27,1.27,0,0,0-1.07-.34,1.41,1.41,0,0,0-1.13.48,1.76,1.76,0,0,0-.39,1.17,2.57,2.57,0,0,0,.42,1.53,7.3,7.3,0,0,0,1,1.16l2.25,2a13.28,13.28,0,0,1,1.31,1.39,6.64,6.64,0,0,1,1,1.68,5.8,5.8,0,0,1,.36,2.11,4.7,4.7,0,0,1-.47,2.13,3.84,3.84,0,0,1-1.34,1.51,4.43,4.43,0,0,1-2.05.71v1.87Z" style="fill:#263238"></path><path d="M282.1,233.66a4.85,4.85,0,0,1-2.77-.67,3.35,3.35,0,0,1-1.36-1.87,9.71,9.71,0,0,1-.37-2.85h3a8.42,8.42,0,0,0,.13,1.6,2,2,0,0,0,.48,1.08,1.35,1.35,0,0,0,1.07.37,1.2,1.2,0,0,0,1.09-.5,3.18,3.18,0,0,0,.41-1.39c.06-.59.09-1.29.09-2.08a12,12,0,0,0-.12-1.81,2.44,2.44,0,0,0-.48-1.2,1.32,1.32,0,0,0-1.1-.43,1.4,1.4,0,0,0-1.06.43,2.68,2.68,0,0,0-.62,1.13h-2.62l.18-9.94h8v2.73h-5.47l-.17,4.3a2.41,2.41,0,0,1,1-.64,4.64,4.64,0,0,1,1.4-.28,3.41,3.41,0,0,1,2.29.59,3.81,3.81,0,0,1,1.3,1.92,9.53,9.53,0,0,1,.42,3,16.11,16.11,0,0,1-.19,2.6,5.69,5.69,0,0,1-.69,2.06,3.45,3.45,0,0,1-1.42,1.36A5.09,5.09,0,0,1,282.1,233.66Z" style="fill:#263238"></path><path d="M288.18,233.39v-2h2v2Z" style="fill:#263238"></path><path d="M294.53,233.56a3.67,3.67,0,0,1-1.73-.36,2.19,2.19,0,0,1-1-1,4,4,0,0,1-.31-1.68v-.17h2a2.78,2.78,0,0,0,.2,1.22c.13.27.42.4.86.4a.82.82,0,0,0,.63-.24,1.58,1.58,0,0,0,.33-.79,8.11,8.11,0,0,0,.11-1.46V228a1.4,1.4,0,0,1-.63.54,2.55,2.55,0,0,1-1,.21,2.33,2.33,0,0,1-1.55-.46,2.6,2.6,0,0,1-.83-1.28,7.22,7.22,0,0,1,.07-3.94,2.9,2.9,0,0,1,1-1.43,3.09,3.09,0,0,1,1.85-.51,3,3,0,0,1,1.83.5,2.79,2.79,0,0,1,1,1.39,5.74,5.74,0,0,1,.33,2v4.31a7.87,7.87,0,0,1-.28,2.14,3,3,0,0,1-1,1.52A3,3,0,0,1,294.53,233.56Zm0-6.41a1,1,0,0,0,.67-.21,2.09,2.09,0,0,0,.4-.45V224.6a4.58,4.58,0,0,0-.09-.95,1.39,1.39,0,0,0-.33-.69.8.8,0,0,0-.66-.26.84.84,0,0,0-.66.27,1.62,1.62,0,0,0-.32.75,6.12,6.12,0,0,0-.09,1.12c0,.43,0,.82.05,1.17a1.7,1.7,0,0,0,.28.83A.86.86,0,0,0,294.54,227.15Z" style="fill:#263238"></path><path d="M302.34,233.56a3.63,3.63,0,0,1-1.72-.36,2.19,2.19,0,0,1-1-1,4,4,0,0,1-.32-1.68v-.17h2a2.93,2.93,0,0,0,.2,1.22.88.88,0,0,0,.87.4.82.82,0,0,0,.63-.24,1.58,1.58,0,0,0,.33-.79,8.25,8.25,0,0,0,.1-1.46V228a1.4,1.4,0,0,1-.63.54,2.5,2.5,0,0,1-1,.21,2.38,2.38,0,0,1-1.56-.46,2.59,2.59,0,0,1-.82-1.28,6.09,6.09,0,0,1-.25-1.83,6.41,6.41,0,0,1,.32-2.11,2.9,2.9,0,0,1,1-1.43,3.59,3.59,0,0,1,3.67,0,2.87,2.87,0,0,1,1,1.39,6,6,0,0,1,.32,2v4.31a7.5,7.5,0,0,1-.28,2.14,2.9,2.9,0,0,1-1,1.52A2.93,2.93,0,0,1,302.34,233.56Zm0-6.41a1,1,0,0,0,.66-.21,1.85,1.85,0,0,0,.4-.45V224.6a4.58,4.58,0,0,0-.09-.95A1.48,1.48,0,0,0,303,223a.84.84,0,0,0-.67-.26.8.8,0,0,0-.65.27,1.53,1.53,0,0,0-.32.75,6.12,6.12,0,0,0-.09,1.12,10.52,10.52,0,0,0,.05,1.17,1.6,1.6,0,0,0,.28.83A.86.86,0,0,0,302.36,227.15Z" style="fill:#263238"></path><polygon points="286.97 191.11 288.16 194.76 291.99 194.76 288.89 197.01 290.08 200.66 286.97 198.41 283.87 200.66 285.06 197.01 281.95 194.76 285.79 194.76 286.97 191.11" style="fill:#92E3A9"></polygon></g><g id="freepik--Floor--inject-2"><line x1="46.02" y1="455.3" x2="713.54" y2="455.3" style="fill:none;stroke:#263238;stroke-linecap:round;stroke-linejoin:round"></line></g><g id="freepik--Character--inject-2"><path d="M157.39,157.27a43.75,43.75,0,0,1,3.89,8.52c1.29,4.25.55,7.77,1.11,8.69s5.73,2.78,5.73,4.07-3.88,5.19-3.88,5.19-1.67,12-3.33,13.13-10.18,0-10.74.19-3.7,8.88-3.7,8.88l-16.65-4.44,1.11-6.11a116.15,116.15,0,0,0-3.15-14.24c-2.59-9.63.19-18.51,12.22-22.77S157.39,157.27,157.39,157.27Z" style="fill:#fff;stroke:#263238;stroke-linecap:round;stroke-linejoin:round"></path><path d="M160.54,186s-4.08-.19-5.74-3" style="fill:none;stroke:#263238;stroke-linecap:round;stroke-linejoin:round"></path><path d="M159.06,172.91c0,1.28-.46,2.31-1,2.31s-1-1-1-2.31.46-2.31,1-2.31S159.06,171.63,159.06,172.91Z" style="fill:#263238"></path><path d="M154.43,168.75s.92-3.52,5.18-1.3" style="fill:none;stroke:#263238;stroke-linecap:round;stroke-linejoin:round"></path><path d="M158.93,301.13s3.77,29.76,1.11,53.51-5.11,28.65-12.21,40.86-9.77,40.41-10,46,1.78,7.55,3.33,8.88a45.35,45.35,0,0,0,7.89,4.73c3,1.12,9.66,3,7.66,5.23s-10.44,0-12.22.92-10-.67-10-.67l-6.44-12S133.17,393.94,135,386s-.89-58.17-.89-58.17l-1.56-31.09Z" style="fill:#263238;stroke:#263238;stroke-linecap:round;stroke-linejoin:round"></path><path d="M109.83,292.92s-4.64,4.22-4.86,20.2,16.88,40,17.77,46.41,2.66,18.2-.45,26-4,24.64-2,33.08,2.67,30,3.11,31.31-1.11,7.77.45,9.32,16.2,2.89,18.87,2.89,8.21-.22,10.66-1.33,4-1.78,2.22-2.89-15.77-4.44-18.43-7.77-2.67-10-2.22-12,2.66-25.31,6.21-33.75,8.66-32.42,8.22-45.74.44-44.41-.44-49.07-1.34-6.66-1.34-6.66l-36.19-11.77Z" style="fill:#fff;stroke:#263238;stroke-linecap:round;stroke-linejoin:round"></path><path d="M135.78,431.84c1-8,2.87-21.48,5.38-27.46,3.56-8.44,8.66-32.42,8.22-45.74s.44-44.41-.44-49.07-1.34-6.66-1.34-6.66l-36.19-11.77-1.58,1.78s-4.64,4.22-4.86,20.2,16.88,40,17.77,46.41,2.66,18.21-.45,26-4,24.64-2,33.08A103.08,103.08,0,0,1,122,431.93,26.77,26.77,0,0,0,135.78,431.84Z" style="fill:#263238;stroke:#263238;stroke-linecap:round;stroke-linejoin:round"></path><path d="M137.78,415.52c-.55,3-.88,5.16-.88,5.54" style="fill:none;stroke:#7d7d7d;stroke-linecap:round;stroke-linejoin:round"></path><path d="M149.56,328.8c.58,10.74,1.22,25.49.94,33.25-.49,13.11-9,37.64-10.69,44.2-.4,1.55-.78,3.16-1.11,4.72" style="fill:none;stroke:#7d7d7d;stroke-linecap:round;stroke-linejoin:round"></path><path d="M152.44,312l-3.64,3.89s.28,4.2.61,10.21" style="fill:none;stroke:#7d7d7d;stroke-linecap:round;stroke-linejoin:round"></path><path d="M123.44,451.67c-.17,2.44-.77,6.38.41,7.55,1.55,1.56,16.2,2.89,18.87,2.89s8.21-.22,10.66-1.33,4-1.78,2.22-2.89-15.77-4.44-18.43-7.77L136,454.66Z" style="fill:#fff;stroke:#263238;stroke-linecap:round;stroke-linejoin:round"></path><path d="M178.45,254s3.76-10.27,4.38-12.39,3-.63,4.26-.25,4.38-.51,4.25.5a3.42,3.42,0,0,1-1.62,2.37,24.89,24.89,0,0,1-4.26.13s-.5,2.13-.12,2.63,11.51-3.26,11-1.88-6.76,8.51-8.64,10.14a15.23,15.23,0,0,1-4.5,2.51s-12.65,15.14-14.53,17.77a19.06,19.06,0,0,1-4,4.14l.87-18.16S177.45,256.17,178.45,254Z" style="fill:#fff;stroke:#263238;stroke-linecap:round;stroke-linejoin:round"></path><path d="M174.26,257.16c-3.78,2.16-8.71,4.39-8.71,4.39l-.87,18.16a19.06,19.06,0,0,0,4-4.14c.87-1.21,4.06-5.12,7.22-9C173.13,263.67,173.62,259.57,174.26,257.16Z" style="fill:#92E3A9;stroke:#263238;stroke-linecap:round;stroke-linejoin:round"></path><line x1="170.25" y1="262.89" x2="173.55" y2="261.17" style="fill:none;stroke:#263238;stroke-linecap:round;stroke-linejoin:round"></line><line x1="171.17" y1="267.11" x2="174.21" y2="265.13" style="fill:none;stroke:#263238;stroke-linecap:round;stroke-linejoin:round"></line><path d="M171.31,258.67s-3.13,6.26,1.51,11" style="fill:none;stroke:#263238;stroke-linecap:round;stroke-linejoin:round"></path><polygon points="196.48 236.39 182.96 255.79 183.96 256.54 197.73 237.14 196.48 236.39" style="fill:#263238"></polygon><path d="M196.23,239.77a24.44,24.44,0,0,1,.25,4c-.13,1.38-.5,2.76-1.25,3s-1.13-3.38-.88-4.26A12.57,12.57,0,0,1,196.23,239.77Z" style="fill:#fff;stroke:#263238;stroke-linecap:round;stroke-linejoin:round"></path><path d="M194.35,242.52s-2.38,2.26-2.5,3,.5,4.5,1.25,4.38,2.63-2.51,2.13-3.13S194.35,242.52,194.35,242.52Z" style="fill:#fff;stroke:#263238;stroke-linecap:round;stroke-linejoin:round"></path><path d="M191.85,245.53s-1.88,2.13-1.88,3.25,0,3,.5,3.63,1,.5,1.63-.5a13.16,13.16,0,0,0,1-2Z" style="fill:#fff;stroke:#263238;stroke-linecap:round;stroke-linejoin:round"></path><path d="M190.47,252.41s-1.38-3.38-1.75-3a2.93,2.93,0,0,0-.76,2.13c.13.75.51,2.63,1.13,3.13S190.22,253.29,190.47,252.41Z" style="fill:#fff;stroke:#263238;stroke-linecap:round;stroke-linejoin:round"></path><path d="M110.76,289.21s-1.85,1.86-.93,3.71,12.22,8.51,25.72,11.28,23.14,1.85,24.8.37,2-6.84,2-6.84A88.82,88.82,0,0,1,132,293.1c-15-5.37-17.77-6.29-18.69-6.48S110.76,289.21,110.76,289.21Z" style="fill:#92E3A9;stroke:#263238;stroke-linecap:round;stroke-linejoin:round"></path><line x1="113.89" y1="291.13" x2="112.7" y2="293.38" style="fill:none;stroke:#263238;stroke-linecap:round;stroke-linejoin:round"></line><line x1="115.47" y1="296.54" x2="116.66" y2="294.04" style="fill:none;stroke:#263238;stroke-linecap:round;stroke-linejoin:round"></line><line x1="121.68" y1="295.22" x2="120.75" y2="298" style="fill:none;stroke:#263238;stroke-linecap:round;stroke-linejoin:round"></line><line x1="126.96" y1="297.2" x2="126.03" y2="300.24" style="fill:none;stroke:#263238;stroke-linecap:round;stroke-linejoin:round"></line><line x1="150.05" y1="302.62" x2="149.66" y2="304.33" style="fill:none;stroke:#263238;stroke-linecap:round;stroke-linejoin:round"></line><line x1="154.81" y1="302.75" x2="154.28" y2="304.86" style="fill:none;stroke:#263238;stroke-linecap:round;stroke-linejoin:round"></line><path d="M126.12,209.46s-9.63,12-10,20.54,2.59,43.12,2.59,43.12-8.88,13.32-7.95,16.09,25.72,11.29,34.05,12.4,16.65,1.48,18.32-1.48,2.77-15.17,4.25-29.24-1.11-33.49-4.62-39.78S150,218.9,150,218.9,128.52,208.9,126.12,209.46Z" style="fill:#92E3A9;stroke:#263238;stroke-linecap:round;stroke-linejoin:round"></path><path d="M125.38,211.49s1.48-12.58,2.59-12.76,23.5,6.1,23.87,7.77-.93,12.21-1.85,12.4S125.38,211.49,125.38,211.49Z" style="fill:#92E3A9;stroke:#263238;stroke-linecap:round;stroke-linejoin:round"></path><line x1="129.82" y1="201.5" x2="128.72" y2="209.73" style="fill:none;stroke:#263238;stroke-linecap:round;stroke-linejoin:round"></line><line x1="133.03" y1="204.05" x2="131.9" y2="212" style="fill:none;stroke:#263238;stroke-linecap:round;stroke-linejoin:round"></line><line x1="138.94" y1="202.01" x2="137.58" y2="210.64" style="fill:none;stroke:#263238;stroke-linecap:round;stroke-linejoin:round"></line><line x1="141.66" y1="216.32" x2="142.57" y2="209.96" style="fill:none;stroke:#263238;stroke-linecap:round;stroke-linejoin:round"></line><path d="M162.07,151.48s.93,4.07-.37,6.47S149.31,169.2,146,172.71s-8.7,9.12-2.6,16.15,7.22,1.85,7.22,1.85-3.14,8-8.88,9.62-16.47,2.41-22.58-3.14-11.66-15-8.51-26.47,9.07-24.24,18.32-26.09,16.29-1.29,21.47,0S161.89,148.89,162.07,151.48Z" style="fill:#263238;stroke:#263238;stroke-linecap:round;stroke-linejoin:round"></path><path d="M124.45,213.9s-6.66,1.85-8.88,8.33.92,55,3.33,57.55,42-28.13,42-28.13a10.73,10.73,0,0,0,4.81-2A41.39,41.39,0,0,0,170.9,245s-1.3,3.88.92,2.59,4.45-4.07,3.71-6.48-4.45-5.74-4.45-5.74-.92-1.66,2.22-1.29,3.71,3.7,5.37,3,1.48-2-1.66-4.26-8.52-3-10.37-.37l-10.73,15L133,256.46l-1.11-30.53" style="fill:#92E3A9;stroke:#263238;stroke-linecap:round;stroke-linejoin:round"></path><line x1="148.73" y1="252.59" x2="151.37" y2="251.4" style="fill:none;stroke:#263238;stroke-linecap:round;stroke-linejoin:round"></line><line x1="149.26" y1="256.16" x2="152.83" y2="254.84" style="fill:none;stroke:#263238;stroke-linecap:round;stroke-linejoin:round"></line><path d="M153.84,257c4.22-3.18,7.07-5.39,7.07-5.39a10.73,10.73,0,0,0,4.81-2A41.39,41.39,0,0,0,170.9,245s-1.3,3.88.92,2.59,4.45-4.07,3.71-6.48-4.45-5.74-4.45-5.74-.92-1.66,2.22-1.29,3.71,3.7,5.37,3,1.48-2-1.66-4.26-8.52-3-10.37-.37l-10.73,15-4.72,1.87Z" style="fill:#fff;stroke:#263238;stroke-linecap:round;stroke-linejoin:round"></path><line x1="147.21" y1="250.72" x2="150.54" y2="258.87" style="fill:none;stroke:#263238;stroke-linecap:round;stroke-linejoin:round"></line></g></svg>